<svg id="Layer_1" data-name="Layer 1" xmlns="http://www.w3.org/2000/svg" viewBox="0 0 400 300" width="406" height="306" class="illustration styles_illustrationTablet__1DWOa"><path d="M142,41.27C98.35,52,63.89,86.07,53.78,129.83c-7.51,32.57-.92,66.14,49.66,78.35,109.36,26.4,227.48,17.69,241.63-35.11S333,29.69,270.43,24.09C234.83,20.9,181.38,31.52,142,41.27Z" fill="#e6e6e6" opacity="0.3"></path><ellipse cx="200" cy="257.85" rx="137.87" ry="13.24" fill="#e6e6e6" opacity="0.45"></ellipse><rect x="107.04" y="71.68" width="57.17" height="183.11" transform="translate(271.25 326.46) rotate(-180)" fill="#e6e6e6"></rect><rect x="152.32" y="71.68" width="11.88" height="183.11" transform="translate(316.53 326.46) rotate(-180)" fill="#c9c9c9" opacity="0.57"></rect><rect x="107.04" y="79.56" width="45.28" height="1.59" transform="translate(259.37 160.71) rotate(-180)" fill="#c9c9c9"></rect><rect x="107.04" y="89.16" width="45.28" height="1.59" transform="translate(259.37 179.91) rotate(-180)" fill="#c9c9c9"></rect><rect x="107.04" y="98.76" width="45.28" height="1.59" transform="translate(259.37 199.11) rotate(-180)" fill="#c9c9c9"></rect><rect x="107.04" y="108.36" width="45.28" height="1.59" transform="translate(259.37 218.31) rotate(-180)" fill="#c9c9c9"></rect><rect x="107.04" y="117.96" width="45.28" height="1.59" transform="translate(259.37 237.51) rotate(-180)" fill="#c9c9c9"></rect><rect x="107.04" y="127.56" width="45.28" height="1.59" transform="translate(259.37 256.71) rotate(-180)" fill="#c9c9c9"></rect><rect x="107.04" y="137.16" width="45.28" height="1.59" transform="translate(259.37 275.91) rotate(-180)" fill="#c9c9c9"></rect><rect x="107.04" y="146.76" width="45.28" height="1.59" transform="translate(259.37 295.11) rotate(-180)" fill="#c9c9c9"></rect><rect x="107.04" y="156.36" width="45.28" height="1.59" transform="translate(259.37 314.31) rotate(-180)" fill="#c9c9c9"></rect><rect x="107.04" y="165.96" width="45.28" height="1.59" transform="translate(259.37 333.51) rotate(-180)" fill="#c9c9c9"></rect><rect x="107.04" y="175.56" width="45.28" height="1.59" transform="translate(259.37 352.71) rotate(-180)" fill="#c9c9c9"></rect><rect x="107.04" y="185.16" width="45.28" height="1.59" transform="translate(259.37 371.91) rotate(-180)" fill="#c9c9c9"></rect><rect x="107.04" y="194.76" width="45.28" height="1.59" transform="translate(259.37 391.11) rotate(-180)" fill="#c9c9c9"></rect><rect x="107.04" y="204.36" width="45.28" height="1.59" transform="translate(259.37 410.31) rotate(-180)" fill="#c9c9c9"></rect><rect x="107.04" y="213.96" width="45.28" height="1.59" transform="translate(259.37 429.51) rotate(-180)" fill="#c9c9c9"></rect><rect x="107.04" y="223.56" width="45.28" height="1.59" transform="translate(259.37 448.71) rotate(-180)" fill="#c9c9c9"></rect><rect x="107.04" y="233.16" width="45.28" height="1.59" transform="translate(259.37 467.92) rotate(-180)" fill="#c9c9c9"></rect><rect x="107.04" y="242.76" width="45.28" height="1.59" transform="translate(259.37 487.12) rotate(-180)" fill="#c9c9c9"></rect><rect x="90.53" y="207.48" width="32.52" height="46.99" fill="#c9c9c9"></rect><rect x="93.81" y="193.71" width="25.96" height="13.78" fill="#c9c9c9"></rect><rect x="90.53" y="207.48" width="32.52" height="3.62" fill="#fff" opacity="0.44"></rect><rect x="104.25" y="188.21" width="10.03" height="5.5" fill="#c9c9c9"></rect><rect x="158.62" y="119.8" width="39.91" height="45.98" fill="#c9c9c9"></rect><rect x="158.62" y="119.8" width="39.91" height="45.98" fill="#fff" opacity="0.44"></rect><rect x="158.62" y="119.8" width="39.91" height="45.98" fill="#ccc"></rect><rect x="158.62" y="165.83" width="56.33" height="88.95" fill="#e6e6e6"></rect><rect x="164.21" y="213.46" width="42.61" height="4.58" fill="#fff" opacity="0.34"></rect><rect x="164.21" y="222.71" width="42.61" height="4.58" fill="#fff" opacity="0.18"></rect><rect x="164.21" y="127.8" width="28.15" height="13.5" fill="#fff" opacity="0.52"></rect><rect x="97.41" y="198.78" width="18.99" height="3.66" fill="#fff"></rect><rect x="164.21" y="174.32" width="42.61" height="4.58" fill="#fff"></rect><path d="M111.66,216.5h0a2.41,2.41,0,0,1,2.41,2.41V229a0,0,0,0,1,0,0h-4.81a0,0,0,0,1,0,0V218.91A2.41,2.41,0,0,1,111.66,216.5Z" fill="#fff"></path><path d="M101.91,216.47h0a2.41,2.41,0,0,1,2.41,2.41v10.05a0,0,0,0,1,0,0H99.5a0,0,0,0,1,0,0V218.88A2.41,2.41,0,0,1,101.91,216.47Z" fill="#fff"></path><path d="M111.66,237.39h0a2.41,2.41,0,0,1,2.41,2.41v10.05a0,0,0,0,1,0,0h-4.81a0,0,0,0,1,0,0V239.8A2.41,2.41,0,0,1,111.66,237.39Z" fill="#fff" opacity="0.52"></path><path d="M101.91,237.36h0a2.41,2.41,0,0,1,2.41,2.41v10.05a0,0,0,0,1,0,0H99.5a0,0,0,0,1,0,0V239.77A2.41,2.41,0,0,1,101.91,237.36Z" fill="#fff" opacity="0.52"></path><path d="M187.32,151.44c0,.46-1.12,3.91,0,6.3a13.83,13.83,0,0,0,2.72,3.88s-2.4.91-1.61,1.69,1.43,2.25,5.3.42,4.93-3.1,4.71-5-5.06-10.07-5.06-10.07Z" fill="#f4a28c"></path><path d="M231.31,94.25S173,96.77,169.49,108c-5.63,18.23,16.75,45.84,16.75,45.84l9-3.34s-11.64-26.63-8.47-30.16C196.68,109.39,220,118,220,118Z" fill="#066cfa"></path><path d="M231.31,94.25S173,96.77,169.49,108c-5.63,18.23,16.75,45.84,16.75,45.84l9-3.34s-11.64-26.63-8.47-30.16C196.68,109.39,220,118,220,118Z" fill="#fff" opacity="0.46"></path><path d="M230.89,246.7s-1.36,3.77-4.76,4.06-4.3,3.62-1.23,4.49,10.95-3.07,10.95-3.07l-.22-4.92Z" fill="#066cfa"></path><path d="M277,246.7s1.35,3.77,4.76,4.06,4.29,3.62,1.23,4.49-11-3.07-11-3.07l.22-4.92Z" fill="#066cfa"></path><path d="M236.46,93.73a117.81,117.81,0,0,1,44.07,9.42,17,17,0,0,1,8.58,23.25l-24,47.84-44.46-2.63s-8.09-26.89-6.46-57.3A21.84,21.84,0,0,1,236.46,93.73Z" fill="#066cfa"></path><path d="M265.13,174.24l13.29,73.15h-6.64l-16.66-39.72a68.9,68.9,0,0,0-29.56-33.29l-4.89-2.77Z" fill="#24285b"></path><path d="M220.67,171.61l6.87,75.78h8.82s-2.06-57,13.87-69.16Z" fill="#24285b"></path><path d="M268.08,106.67s-11.36,7.3-7.78,29.75a45,45,0,0,1-10.75,36.89l15.58.93s10-20.84,12.66-25.26S268.08,106.67,268.08,106.67Z" opacity="0.08"></path><path d="M265.77,113.47c0-10.17,12.66-14.86,19.46-7.31a42.14,42.14,0,0,1,10.83,23.24c2.7,22.33-.27,71.08-.27,71.08H287.7s-5.46-48.72-17.37-71.08C267,123.17,265.79,117.87,265.77,113.47Z" fill="#066cfa"></path><path d="M265.77,113.47c0-10.17,12.66-14.86,19.46-7.31a42.14,42.14,0,0,1,10.83,23.24c2.7,22.33-.27,71.08-.27,71.08H287.7s-5.46-48.72-17.37-71.08C267,123.17,265.79,117.87,265.77,113.47Z" fill="#fff" opacity="0.46"></path><path d="M298.67,214.55v-3.44a4.73,4.73,0,0,0-4.73-4.73h-4.42a4.73,4.73,0,0,0-4.73,4.73v3.7" fill="none" stroke="#24285b" stroke-miterlimit="10" stroke-width="2"></path><rect x="274.34" y="213.19" width="33.71" height="21.96" transform="translate(582.39 448.34) rotate(-180)" fill="#ffd200"></rect><path d="M308.05,223.49s-12.63,10.85-33.71,7.66v4h33.71Z" opacity="0.08"></path><path d="M294.38,200.48s2.43,8-.76,8-7,1.53-4.6-8Z" fill="#f4a28c"></path><path d="M238.22,73.06a33.1,33.1,0,0,0-.52,8.9,2.69,2.69,0,0,0,3.06,2.28,6,6,0,0,0,5.11-4L248,75.79a4.82,4.82,0,0,0-1.56-5.34C243.62,68,238.68,69.82,238.22,73.06Z" fill="#f4a28c"></path><polygon points="246.87 77.03 249.81 94.36 240.15 95.3 241.89 82.31 246.87 77.03" fill="#f4a28c"></polygon><path d="M237.74,76.41,236,78.31a.86.86,0,0,0,.39,1.39l2,.61Z" fill="#f4a28c"></path><path d="M241.69,84s1.24-.1,3.61-1.93c0,0,0,3.51-4.16,5.75Z" fill="#ce8172" opacity="0.31"></path><path d="M244.9,77.19a2,2,0,0,1-2,1.61,7.72,7.72,0,0,0-5.59,1.71c-2.69,2.54.83,6.54,4.18,5s7.4-8.19,7.4-8.19,2.6-5.44,1.25-8.41-9.92-6.23-12.49-.33c-1.65,3.77,2,4.93,4.86,5.28a2.81,2.81,0,0,1,2.41,3.28Z" fill="#24285b"></path><path d="M243.07,76.79s.26-2.05,1.78-1.72,1.17,3.28-1,3.34Z" fill="#f4a28c"></path><path d="M235.14,96.28s-9.07,45.61,2.88,67.83c0,0,5.2-48.59,20.25-68C258.27,96.15,247,91.5,235.14,96.28Z" fill="#fff"></path><path d="M235.14,96.28l-12.37,24.79,5.72,13.46-4.2,11.76L238,164.11S226.47,150.84,235.14,96.28Z" fill="#fff" opacity="0.27"></path><path d="M240.28,95.1c.21-1.32,1.05-1,2.37-1.18,1.17-.18,2.8-1.45,3.75-.09,1.83,2.62-2.48,6.6-2.48,6.6l-3.48-.43A19.35,19.35,0,0,1,240.28,95.1Z" fill="#24285b"></path><path d="M240.44,100l3.48.43s-3,27-2.7,43.21L238,164.11s-6.25-10.94-5.85-23.92C232.17,140.19,235.65,115,240.44,100Z" fill="#24285b"></path><path d="M235.14,96.28,239,99.83l4-4.52,3,4.85,12.23-4S245,88.76,235.14,96.28Z" fill="#066cfa"></path><path d="M235.14,96.28,239,99.83l4-4.52,3,4.85,12.23-4S245,88.76,235.14,96.28Z" fill="#fff" opacity="0.55"></path><path d="M258.27,96.15l-2.33,34.52-9.67,4.26,3.93,11.82L238,164.11S243.47,115.28,258.27,96.15Z" fill="#fff" opacity="0.27"></path></svg>