<svg id="Layer_1" data-name="Layer 1" xmlns="http://www.w3.org/2000/svg" viewBox="0 0 400 300" width="406" height="306" class="illustration styles_illustrationTablet__1DWOa"><ellipse cx="194.83" cy="251.3" rx="137.87" ry="13.24" fill="#e6e6e6" opacity="0.45"></ellipse><path d="M258,52.12c43.56,10.11,78,42,88.08,83.09,7.51,30.55.92,62-49.61,73.5C187.21,233.48,69.21,225.3,55.07,175.77S67.17,41.26,129.64,36C165.21,33,218.6,43,258,52.12Z" fill="#e6e6e6" opacity="0.3"></path><path d="M247.08,160.65l-29.46-22.14a35.79,35.79,0,0,0-21.48-7.17h-75A47.9,47.9,0,0,0,81,152.92c-12.13,18.52-23,46.76-5.48,75.86H319.07V203.51a23.2,23.2,0,0,0-18-22.6C284.2,177,259.64,170.08,247.08,160.65Z" fill="#e6e6e6"></path><rect x="66.35" y="214.47" width="256.96" height="14.31" rx="3.06" transform="translate(389.65 443.26) rotate(-180)" fill="#e6e6e6"></rect><rect x="66.35" y="214.47" width="256.96" height="14.31" rx="3.06" transform="translate(389.65 443.26) rotate(-180)" fill="#fff" opacity="0.46"></rect><circle cx="93.97" cy="226.73" r="22.46" fill="#c1c1c1"></circle><circle cx="93.97" cy="226.73" r="13.04" fill="#fff"></circle><path d="M250.46,226.73a22.46,22.46,0,1,0,22.46-22.46A22.43,22.43,0,0,0,250.46,226.73Z" fill="#c1c1c1"></path><circle cx="272.92" cy="226.73" r="13.04" fill="#fff"></circle><path d="M211.52,146.05l21.77,20.83a3.76,3.76,0,0,1-2.6,6.48H109.34a6.85,6.85,0,0,1-6.48-9.06l4.43-13A14.46,14.46,0,0,1,121,141.49h79.16A16.47,16.47,0,0,1,211.52,146.05Z" fill="#c1c1c1"></path><path d="M96.19,138.28s5.68,24.69-26.55,38C69.64,176.32,75.1,149.38,96.19,138.28Z" fill="#c1c1c1"></path><polygon points="171.25 138.28 173.66 180.06 151.93 180.06 158.93 138.28 171.25 138.28" fill="#e6e6e6"></polygon><rect x="213.91" y="162.53" width="21.42" height="11.72" rx="5.05" transform="translate(449.25 336.78) rotate(-180)" fill="#e6e6e6"></rect><rect x="213.91" y="162.53" width="21.42" height="11.72" rx="5.05" transform="translate(449.25 336.78) rotate(-180)" fill="#fff" opacity="0.46"></rect><path d="M314.38,189.53H297.09a2.82,2.82,0,0,0-2.37,4.34l4.61,7.19a7,7,0,0,0,5.87,3.21h13.87v-1.82a20.14,20.14,0,0,0-4.69-12.92Z" fill="#fff"></path><path d="M147.52,128.86h8.76a1.87,1.87,0,0,1,1.87,1.87v.62a0,0,0,0,1,0,0H145.65a0,0,0,0,1,0,0v-.62A1.87,1.87,0,0,1,147.52,128.86Z" fill="#c1c1c1"></path><path d="M152.46,110.58h0a1.86,1.86,0,0,1,1.86,1.86l-.42,16.42h-3.72l.42-16.42A1.86,1.86,0,0,1,152.46,110.58Z" fill="#e6e6e6"></path><path d="M243.08,68.26a43.31,43.31,0,0,0,.39,6.95c1,6.23-1.66,3.89-3,3l-1.37-9.38Z" fill="#24285b"></path><path d="M241.06,100.52c-1.31-2-3.9-7.16-3-15.38l-6.68.4s-2.5,12.25-5.71,14.91l.06.07Z" fill="#f4a28c"></path><path d="M241.06,100.52c-1.31-2-3.9-7.16-3-15.38l-6.68.4s-2.5,12.25-5.71,14.91l.06.07Z" opacity="0.09"></path><path d="M227.55,75.22S226,90,233.74,91.47s6.95-15.62,6.95-15.62-.05-8.93-4.57-10S226.62,64.49,227.55,75.22Z" fill="#f4a28c"></path><path d="M227.43,78.66s-4-1.25-3.78.82-.48,4.82,4.15,3.61Z" fill="#f4a28c"></path><path d="M240.47,78.45s4-1.1,3.76,1,.31,4.83-4.28,3.46Z" fill="#f4a28c"></path><path d="M227.43,78.66a83.37,83.37,0,0,1,2.17-8.79c1.49.45,4.27,1.95,5.82,2s6.09.17,6.89-1.64a1.41,1.41,0,0,0,.09-.58,6,6,0,0,0-2.14-4.5c-1.39-1.18-3.1-1.33-4.7-2a7.12,7.12,0,0,0-8.06,1.38c-3.28,3.46-2.86,9.59-2.17,13.89Z" fill="#24285b"></path><path d="M204.7,180.11s7.57,3.83,4.67,8.25-9.18-4.13-9.18-4.13Z" fill="#f4a28c"></path><path d="M222,104.33a4.52,4.52,0,0,0-5.54-5.53,66.07,66.07,0,0,0-35.75,24.61c-1.58,2.13-3.08,4.21-4.49,6.22a31.37,31.37,0,0,0,6.89,43.14L199.39,185l6.45-5.89-13.07-12.5a17.1,17.1,0,0,1,0-24.78l25.66-24.31Z" fill="#066cfa"></path><path d="M222,104.33a4.52,4.52,0,0,0-5.54-5.53,66.07,66.07,0,0,0-35.75,24.61c-1.58,2.13-3.08,4.21-4.49,6.22a31.37,31.37,0,0,0,6.89,43.14L199.39,185l6.45-5.89-13.07-12.5a17.1,17.1,0,0,1,0-24.78l25.66-24.31Z" fill="#fff" opacity="0.46"></path><path d="M235.75,85.21l-2.06,1.27a.82.82,0,0,0,0,1.38L235.34,89Z" fill="#f4a28c"></path><path d="M216.9,250.84s-1.36,3.77-4.76,4.06-4.3,3.62-1.23,4.48,11-3.06,11-3.06l-.22-4.92Z" fill="#066cfa"></path><path d="M263,250.84s1.35,3.77,4.76,4.06,4.29,3.62,1.23,4.48-11-3.06-11-3.06l.22-4.92Z" fill="#066cfa"></path><path d="M222.47,97.87a117.61,117.61,0,0,1,44.07,9.42,17,17,0,0,1,8.58,23.25l-24,47.83-44.46-2.63s-8.09-26.88-6.46-57.29A21.83,21.83,0,0,1,222.47,97.87Z" fill="#066cfa"></path><path d="M225,98s3.16,42.82,3.73,57.65L241,99.67Z" fill="#fff"></path><polygon points="232.25 98.97 227.31 130.64 228.75 155.59 234.1 131.12 233.36 99.62 232.25 98.97" fill="#24285b"></polygon><path d="M251.14,178.37l13.29,73.15h-6.64l-16.66-39.71a68.88,68.88,0,0,0-29.56-33.3l-4.89-2.77Z" fill="#24285b"></path><path d="M206.68,175.74l6.87,75.78h8.82s-2.06-57,13.87-69.16Z" fill="#24285b"></path><path d="M254.09,110.81s-11.36,7.3-7.78,29.74a45,45,0,0,1-10.75,36.9l15.58.92s10-20.83,12.66-25.25S254.09,110.81,254.09,110.81Z" opacity="0.08"></path><path d="M251.78,117.6c0-10.16,12.66-14.86,19.46-7.3a42.14,42.14,0,0,1,10.83,23.24c2.7,22.33-.27,71.08-.27,71.08h-8.09s-5.46-48.73-17.37-71.08C253,127.3,251.8,122,251.78,117.6Z" fill="#066cfa"></path><path d="M251.78,117.6c0-10.16,12.66-14.86,19.46-7.3a42.14,42.14,0,0,1,10.83,23.24c2.7,22.33-.27,71.08-.27,71.08h-8.09s-5.46-48.73-17.37-71.08C253,127.3,251.8,122,251.78,117.6Z" fill="#fff" opacity="0.46"></path><path d="M280.39,204.62s2.43,8-.76,8-7,1.53-4.6-8Z" fill="#f4a28c"></path><path d="M224.79,69.43A20.66,20.66,0,0,1,223.57,65c-.17-1.79,5.21-7.4,10.53-7.4,3.69,0,9.86,4.77,10.41,5.89s-1,4.79-1,4.79A17.28,17.28,0,0,1,224.79,69.43Z" fill="#ffd200"></path><path d="M224.79,69.43A20.66,20.66,0,0,1,223.57,65c-.17-1.79,5.21-7.4,10.53-7.4,3.69,0,9.86,4.77,10.41,5.89s-1,4.79-1,4.79A17.28,17.28,0,0,1,224.79,69.43Z" fill="#fff" opacity="0.46"></path><path d="M224.6,68.3s-1.2,3.52,3.59,5.59,10.62,1.58,12.56-.57a13.85,13.85,0,0,0,2.72-5S235.7,64.72,224.6,68.3Z" fill="#ffd200"></path><path d="M225,98s6.77.3,8.34.54,7.76.5,7.61,1.18-4.29,4.29-6,3.8-2.05-2.79-2.05-2.79-1.18,2.93-3.23,1.94S225,98,225,98Z" fill="#066cfa"></path><path d="M225,98s6.77.3,8.34.54,7.76.5,7.61,1.18-4.29,4.29-6,3.8-2.05-2.79-2.05-2.79-1.18,2.93-3.23,1.94S225,98,225,98Z" fill="#fff" opacity="0.46"></path></svg>